<svg xmlns="http://www.w3.org/2000/svg" width="320" height="104" viewBox="0 0 320 104" role="img" aria-labelledby="title desc"><title id="title">nullrpc — light wordmark</title><desc id="desc">Official nullrpc identity artwork. Lettering is outlined for portable rendering.</desc><g fill="#0A0D12" aria-label="nullrpc"><path d="M17.624 74.0V34.328H27.352V40.94H27.732Q28.948 37.748 31.57 35.582Q34.192 33.416000000000004 38.828 33.416000000000004Q44.984 33.416000000000004 48.251999999999995 37.444Q51.519999999999996 41.472 51.519999999999996 48.92V74.0H41.792V49.908Q41.792 45.652 40.272 43.524Q38.751999999999995 41.396 35.256 41.396Q33.736000000000004 41.396 32.33 41.814Q30.924 42.232 29.822 43.03Q28.72 43.828 28.036 45.006Q27.352 46.184 27.352 47.78V74.0Z"/><path d="M84.524 67.388H84.144Q83.612 68.908 82.738 70.238Q81.864 71.568 80.534 72.632Q79.20400000000001 73.696 77.34200000000001 74.304Q75.48 74.912 73.048 74.912Q66.892 74.912 63.623999999999995 70.884Q60.356 66.856 60.356 59.408V34.328H70.084V58.42Q70.084 62.524 71.68 64.69Q73.27600000000001 66.856 76.772 66.856Q78.21600000000001 66.856 79.62200000000001 66.476Q81.028 66.096 82.09200000000001 65.298Q83.156 64.5 83.84 63.322Q84.524 62.144 84.524 60.548V34.328H94.25200000000001V74.0H84.524Z"/><path d="M113.72800000000001 74.0Q108.712 74.0 106.356 71.49199999999999Q104.0 68.984 104.0 64.424V17.759999999999998H113.72800000000001V66.248H118.97200000000001V74.0Z"/><path d="M134.572 74.0Q129.556 74.0 127.2 71.49199999999999Q124.844 68.984 124.844 64.424V17.759999999999998H134.572V66.248H139.816V74.0Z"/><path d="M145.688 74.0V34.328H155.416V42.536H155.796Q156.176 40.94 156.974 39.458Q157.772 37.976 159.064 36.836Q160.356 35.696 162.142 35.012Q163.928 34.328 166.284 34.328H168.41199999999998V43.524H165.37199999999999Q160.432 43.524 157.92399999999998 44.968Q155.416 46.412 155.416 49.68V74.0Z"/><path d="M174.05599999999998 34.328H183.784V40.864000000000004H184.088Q185.152 37.444 188.11599999999999 35.43000000000001Q191.07999999999998 33.416000000000004 195.03199999999998 33.416000000000004Q202.63199999999998 33.416000000000004 206.62199999999999 38.774Q210.612 44.132000000000005 210.612 54.088Q210.612 64.12 206.62199999999999 69.516Q202.63199999999998 74.912 195.03199999999998 74.912Q191.07999999999998 74.912 188.154 72.86000000000001Q185.22799999999998 70.808 184.088 67.388H183.784V89.2H174.05599999999998ZM191.916 66.856Q195.71599999999998 66.856 198.072 64.348Q200.428 61.84 200.428 57.584V50.744Q200.428 46.488 198.072 43.942Q195.71599999999998 41.396 191.916 41.396Q188.42 41.396 186.10199999999998 43.144Q183.784 44.891999999999996 183.784 47.78V60.396Q183.784 63.512 186.10199999999998 65.184Q188.42 66.856 191.916 66.856Z"/><path d="M233.81199999999998 74.912Q229.404 74.912 225.98399999999998 73.468Q222.564 72.024 220.24599999999998 69.28800000000001Q217.92799999999997 66.552 216.712 62.714000000000006Q215.49599999999998 58.876000000000005 215.49599999999998 54.088Q215.49599999999998 49.3 216.712 45.5Q217.92799999999997 41.7 220.24599999999998 39.002Q222.564 36.304 225.98399999999998 34.86Q229.404 33.416000000000004 233.81199999999998 33.416000000000004Q239.81599999999997 33.416000000000004 243.72999999999996 36.07600000000001Q247.64399999999998 38.736000000000004 249.392 43.448L241.41199999999998 47.019999999999996Q240.72799999999998 44.512 238.86599999999999 42.878Q237.004 41.244 233.81199999999998 41.244Q229.70799999999997 41.244 227.69399999999996 43.828Q225.67999999999998 46.412 225.67999999999998 50.592V57.812Q225.67999999999998 61.992000000000004 227.69399999999996 64.53800000000001Q229.70799999999997 67.084 233.81199999999998 67.084Q237.308 67.084 239.20799999999997 65.298Q241.10799999999998 63.512 242.17199999999997 60.852000000000004L249.61999999999998 64.424Q247.64399999999998 69.668 243.61599999999999 72.29Q239.588 74.912 233.81199999999998 74.912Z"/></g></svg>
